<svg width="15" height="15" viewBox="0 0 15 15" fill="none" xmlns="http://www.w3.org/2000/svg">
<path d="M7.67118 4.76923H9.38447L7.32852 7.58974L8.69915 9.5641L7.67118 10.6923L5.61523 7.58974L7.67118 4.76923Z" fill="#ED7D23" stroke="#ED7D23" stroke-width="0.269231" stroke-linecap="round" stroke-linejoin="round"/>
<path d="M7.36 13.9231V14.4615H7.89846V13.9231H7.36ZM4 13.9231H3.46154V14.4615H4V13.9231ZM4 3.52843L3.47428 3.41199C3.46581 3.45022 3.46154 3.48927 3.46154 3.52843H4ZM11 3.52843H11.5385C11.5385 3.47073 11.5292 3.41341 11.511 3.35866L11 3.52843ZM11 9.87956V10.418H11.5385V9.87956H11ZM7.36 9.87956V9.34109H6.82154V9.87956H7.36ZM7.36 13.3846H4V14.4615H7.36V13.3846ZM4.53846 13.9231V3.52843H3.46154V13.9231H4.53846ZM4 3.52843C4.52572 3.64487 4.52566 3.64513 4.52561 3.64538C4.52559 3.64545 4.52554 3.64569 4.52551 3.64584C4.52544 3.64612 4.52538 3.64637 4.52534 3.64659C4.52524 3.64701 4.52518 3.64729 4.52515 3.64742C4.52508 3.64769 4.52515 3.64738 4.52536 3.64651C4.52578 3.64477 4.52675 3.6408 4.52831 3.63474C4.53144 3.62262 4.53695 3.60224 4.5452 3.57479C4.56174 3.51975 4.5891 3.43704 4.63015 3.33594C4.71278 3.13246 4.84775 2.8622 5.05557 2.59411C5.46007 2.07229 6.15166 1.53846 7.36 1.53846L7.36 0.461538C5.76834 0.461538 4.77993 1.19192 4.20443 1.93432C3.92225 2.29834 3.74222 2.66019 3.63235 2.93078C3.57715 3.06672 3.53888 3.18155 3.51386 3.26478C3.50133 3.30646 3.49207 3.3404 3.48563 3.36532C3.48241 3.37779 3.47989 3.38801 3.47802 3.39584C3.47708 3.39975 3.47631 3.40307 3.47569 3.40577C3.47538 3.40711 3.4751 3.40831 3.47487 3.40935C3.47475 3.40987 3.47464 3.41035 3.47455 3.41079C3.4745 3.41101 3.47443 3.41131 3.47441 3.41142C3.47434 3.41171 3.47428 3.41199 4 3.52843ZM7.36 1.53846C8.57431 1.53846 9.34617 2.07858 9.82696 2.62128C10.0708 2.89657 10.2395 3.17325 10.3466 3.38057C10.3999 3.48372 10.4372 3.56819 10.4605 3.62462C10.472 3.65278 10.4801 3.6738 10.4847 3.6865C10.4871 3.69284 10.4886 3.69709 10.4893 3.69909C10.4896 3.70009 10.4898 3.70053 10.4897 3.70039C10.4897 3.70032 10.4896 3.7001 10.4895 3.69974C10.4895 3.69955 10.4894 3.69933 10.4893 3.69908C10.4893 3.69895 10.4892 3.69873 10.4892 3.69866C10.4891 3.69843 10.489 3.69819 11 3.52843C11.511 3.35866 11.5109 3.3584 11.5108 3.35814C11.5108 3.35803 11.5107 3.35775 11.5106 3.35755C11.5105 3.35714 11.5103 3.35669 11.5102 3.3562C11.5098 3.35522 11.5095 3.35409 11.509 3.3528C11.5081 3.35023 11.507 3.34704 11.5057 3.34326C11.5031 3.33569 11.4995 3.32574 11.495 3.31357C11.486 3.28922 11.4733 3.25593 11.4564 3.21495C11.4228 3.1331 11.3726 3.02004 11.3034 2.88615C11.1655 2.61939 10.9492 2.26397 10.633 1.90715C9.99383 1.18563 8.94569 0.461538 7.36 0.461538L7.36 1.53846ZM10.4615 3.52843V9.87956H11.5385V3.52843H10.4615ZM11 9.34109H7.36V10.418H11V9.34109ZM6.82154 9.87956V13.9231H7.89846V9.87956H6.82154Z" fill="#ED7D23"/>
</svg>
