<svg width="97" height="34" viewBox="0 0 97 34" fill="none" xmlns="http://www.w3.org/2000/svg">
<path d="M19.8182 10H23L19.1818 15.2381L21.7273 18.9048L19.8182 21L16 15.2381L19.8182 10Z" fill="#ED7D23" stroke="#ED7D23" stroke-width="0.5" stroke-linecap="round" stroke-linejoin="round"/>
<path d="M20.24 27V28H21.24V27H20.24ZM14 27H13V28H14V27ZM14 7.69565L13.0237 7.47941C13.0079 7.55042 13 7.62293 13 7.69565H14ZM27 7.69565H28C28 7.58851 27.9828 7.48206 27.949 7.38037L27 7.69565ZM27 19.4906V20.4906H28V19.4906H27ZM20.24 19.4906V18.4906H19.24V19.4906H20.24ZM20.24 26H14V28H20.24V26ZM15 27V7.69565H13V27H15ZM14 7.69565C14.9763 7.91189 14.9762 7.91238 14.9761 7.91285C14.9761 7.91298 14.976 7.91343 14.9759 7.9137C14.9758 7.91423 14.9757 7.91469 14.9756 7.91509C14.9754 7.91588 14.9753 7.9164 14.9753 7.91665C14.9752 7.91714 14.9753 7.91657 14.9757 7.91495C14.9764 7.91172 14.9782 7.90434 14.9811 7.8931C14.987 7.87059 14.9972 7.83274 15.0125 7.78174C15.0432 7.67954 15.094 7.52593 15.1703 7.33817C15.3237 6.96028 15.5744 6.45836 15.9603 5.96049C16.7116 4.9914 17.9959 4 20.24 4L20.24 2C17.2841 2 15.4484 3.35643 14.3797 4.73516C13.8556 5.4112 13.5213 6.0832 13.3172 6.58574C13.2147 6.8382 13.1436 7.05144 13.0972 7.20603C13.0739 7.28343 13.0567 7.34646 13.0447 7.39274C13.0388 7.41589 13.0341 7.43488 13.0306 7.44941C13.0289 7.45668 13.0274 7.46284 13.0263 7.46785C13.0257 7.47036 13.0252 7.47258 13.0248 7.4745C13.0245 7.47547 13.0243 7.47636 13.0242 7.47718C13.0241 7.47759 13.0239 7.47814 13.0239 7.47835C13.0238 7.47889 13.0237 7.47941 14 7.69565ZM20.24 4C22.4952 4 23.9286 5.00308 24.8215 6.01095C25.2744 6.5222 25.5876 7.03603 25.7866 7.42106C25.8856 7.61263 25.9549 7.7695 25.998 7.87429C26.0195 7.92659 26.0344 7.96563 26.0431 7.98921C26.0474 8.00099 26.0502 8.00888 26.0515 8.0126C26.0522 8.01446 26.0525 8.01528 26.0524 8.01501C26.0523 8.01488 26.0522 8.01447 26.052 8.01379C26.0518 8.01346 26.0517 8.01305 26.0515 8.01257C26.0515 8.01233 26.0513 8.01192 26.0513 8.0118C26.0511 8.01138 26.051 8.01093 27 7.69565C27.949 7.38037 27.9488 7.37989 27.9487 7.37939C27.9486 7.3792 27.9484 7.37869 27.9483 7.3783C27.9481 7.37754 27.9478 7.37671 27.9475 7.3758C27.9469 7.37398 27.9461 7.37188 27.9453 7.36949C27.9437 7.36471 27.9417 7.35879 27.9392 7.35176C27.9343 7.33771 27.9277 7.31923 27.9193 7.29662C27.9026 7.25142 27.8789 7.18958 27.8476 7.11349C27.7851 6.96147 27.6919 6.7515 27.5634 6.50285C27.3074 6.00745 26.9056 5.34737 26.3185 4.6847C25.1314 3.34474 23.1848 2 20.24 2L20.24 4ZM26 7.69565V19.4906H28V7.69565H26ZM27 18.4906H20.24V20.4906H27V18.4906ZM19.24 19.4906V27H21.24V19.4906H19.24Z" fill="#ED7D23"/>
<rect x="22" y="21" width="61" height="7" fill="#ED7D23"/>
<rect x="53" y="22" width="29" height="5" fill="white"/>
<path d="M25.1156 25.7435V26H24V25.7435H24.1163C24.1551 25.7435 24.1919 25.7312 24.2267 25.7066C24.2625 25.6806 24.2804 25.6156 24.2804 25.5116V23.4904C24.2804 23.3988 24.263 23.3372 24.2282 23.3057C24.1944 23.2729 24.1571 23.2565 24.1163 23.2565H24V23H25.1022C25.3309 23 25.5123 23.0328 25.6466 23.0985C25.7808 23.1642 25.8768 23.2565 25.9344 23.3755C25.9931 23.4945 26.0224 23.6341 26.0224 23.7941C26.0224 23.9555 26.0025 24.0869 25.9628 24.1881C25.923 24.2921 25.8703 24.3735 25.8047 24.4323C25.74 24.4911 25.668 24.5363 25.5884 24.5677L25.9359 25.3782C25.9916 25.5068 26.0393 25.5999 26.0791 25.6573C26.1189 25.7148 26.1641 25.7435 26.2148 25.7435H26.2357V26H26.0925C25.9155 26 25.7659 25.9761 25.6436 25.9282C25.5213 25.8803 25.4318 25.7784 25.3751 25.6224L25.0545 24.7134H24.8919V25.5116C24.8919 25.6156 24.9053 25.6806 24.9322 25.7066C24.96 25.7312 24.9963 25.7435 25.041 25.7435H25.1156ZM25.0231 23.2811H24.8919V24.4364H25.0291C25.1474 24.4364 25.2339 24.3878 25.2886 24.2907C25.3443 24.1922 25.3721 24.0431 25.3721 23.8434C25.3721 23.6423 25.3423 23.4986 25.2827 23.4124C25.224 23.3249 25.1375 23.2811 25.0231 23.2811Z" fill="white"/>
<path d="M27.0873 25.7435V26H26.2566V25.7435H26.2775C26.3312 25.7435 26.3789 25.7257 26.4206 25.6902C26.4624 25.6532 26.4992 25.5746 26.531 25.4542L27.1828 23H27.7346L28.3581 25.4624C28.3849 25.5609 28.4192 25.6327 28.461 25.6778C28.5027 25.7216 28.552 25.7435 28.6086 25.7435H28.6414V26H27.5124V25.7435H27.6347C27.6665 25.7435 27.6959 25.7353 27.7227 25.7189C27.7495 25.7011 27.763 25.6662 27.763 25.6142C27.763 25.5746 27.7585 25.5342 27.7495 25.4932C27.7446 25.474 27.7401 25.4576 27.7361 25.4439C27.7331 25.4289 27.7307 25.4166 27.7287 25.407L27.6347 25.0253H26.9382L26.8681 25.3269C26.8611 25.3611 26.8522 25.407 26.8412 25.4644C26.8303 25.5219 26.8248 25.5705 26.8248 25.6101C26.8248 25.6512 26.8328 25.684 26.8487 25.7086C26.8656 25.7319 26.8954 25.7435 26.9382 25.7435H27.0873ZM27.1977 23.9275L27.0053 24.736H27.5676L27.3931 23.9316C27.3861 23.896 27.3787 23.8591 27.3707 23.8208C27.3628 23.7811 27.3548 23.7401 27.3468 23.6977C27.3299 23.6211 27.3145 23.5342 27.3006 23.4371C27.2847 23.526 27.2673 23.6129 27.2484 23.6977C27.2305 23.7811 27.2136 23.8577 27.1977 23.9275Z" fill="white"/>
<path d="M30.4148 25.7435V26H29.156V25.7435H29.2634C29.328 25.7435 29.3797 25.7264 29.4185 25.6922C29.4573 25.6566 29.4767 25.58 29.4767 25.4624V25.0335L28.9114 23.4781C28.8806 23.3947 28.8527 23.3372 28.8279 23.3057C28.804 23.2729 28.7598 23.2565 28.6951 23.2565H28.6549V23H29.8122V23.2565H29.8003C29.7347 23.2565 29.682 23.277 29.6422 23.3181C29.6034 23.3577 29.584 23.4138 29.584 23.4863C29.584 23.5178 29.587 23.5547 29.593 23.5971C29.599 23.6382 29.6099 23.6799 29.6258 23.7223L29.8525 24.3399C29.8804 24.4152 29.9017 24.4795 29.9166 24.5328C29.9326 24.5862 29.949 24.645 29.9659 24.7093C29.9857 24.6341 30.0091 24.554 30.036 24.4692C30.0638 24.383 30.0931 24.2955 30.124 24.2066L30.2895 23.7305C30.3114 23.6594 30.3248 23.6026 30.3298 23.5602C30.3348 23.515 30.3372 23.4877 30.3372 23.4781C30.3372 23.3304 30.2661 23.2565 30.124 23.2565H30.0658V23H30.9055V23.2565H30.8697C30.8299 23.2565 30.7986 23.2654 30.7757 23.2832C30.7509 23.301 30.727 23.3331 30.7041 23.3796C30.6823 23.4261 30.6549 23.4925 30.6221 23.5787L30.0941 25.0417V25.4706C30.0941 25.5855 30.111 25.6601 30.1448 25.6943C30.1796 25.7271 30.2204 25.7435 30.2671 25.7435H30.4148Z" fill="white"/>
<path d="M31.7646 25.7435V26H30.9338V25.7435H30.9547C31.0084 25.7435 31.0561 25.7257 31.0979 25.6902C31.1396 25.6532 31.1764 25.5746 31.2083 25.4542L31.86 23H32.4119L33.0353 25.4624C33.0621 25.5609 33.0964 25.6327 33.1382 25.6778C33.18 25.7216 33.2292 25.7435 33.2859 25.7435H33.3187V26H32.1896V25.7435H32.3119C32.3438 25.7435 32.3731 25.7353 32.3999 25.7189C32.4268 25.7011 32.4402 25.6662 32.4402 25.6142C32.4402 25.5746 32.4357 25.5342 32.4268 25.4932C32.4218 25.474 32.4173 25.4576 32.4134 25.4439C32.4104 25.4289 32.4079 25.4166 32.4059 25.407L32.3119 25.0253H31.6154L31.5453 25.3269C31.5384 25.3611 31.5294 25.407 31.5185 25.4644C31.5075 25.5219 31.5021 25.5705 31.5021 25.6101C31.5021 25.6512 31.51 25.684 31.5259 25.7086C31.5428 25.7319 31.5727 25.7435 31.6154 25.7435H31.7646ZM31.8749 23.9275L31.6825 24.736H32.2448L32.0703 23.9316C32.0634 23.896 32.0559 23.8591 32.0479 23.8208C32.04 23.7811 32.032 23.7401 32.0241 23.6977C32.0072 23.6211 31.9918 23.5342 31.9778 23.4371C31.9619 23.526 31.9445 23.6129 31.9256 23.6977C31.9078 23.7811 31.8908 23.8577 31.8749 23.9275Z" fill="white"/>
<path d="M34.2031 25.7435V26H33.3843V25.7435H33.4857C33.5404 25.7435 33.5837 25.7298 33.6155 25.7025C33.6483 25.6737 33.6647 25.6033 33.6647 25.4911V23.4904C33.6647 23.3878 33.6488 23.3235 33.617 23.2975C33.5861 23.2702 33.5513 23.2565 33.5126 23.2565H33.3843V23H34.1509L35.2173 24.9289V23.4904C35.2173 23.4042 35.2029 23.344 35.1741 23.3098C35.1452 23.2743 35.1104 23.2565 35.0697 23.2565H34.9384V23H35.7572V23.2565H35.626C35.5792 23.2565 35.5425 23.2763 35.5156 23.316C35.4898 23.3543 35.4768 23.4186 35.4768 23.5089V26H35.1502L33.9242 23.7592V25.4911C33.9242 25.6033 33.9356 25.6737 33.9585 25.7025C33.9814 25.7298 34.0192 25.7435 34.0719 25.7435H34.2031Z" fill="white"/>
<path d="M38.6686 25.7435V26H37.4321V25.7435H37.5544C37.5972 25.7435 37.634 25.7298 37.6648 25.7025C37.6966 25.6737 37.7125 25.6033 37.7125 25.4911V23.4904C37.7125 23.3878 37.6966 23.3235 37.6648 23.2975C37.634 23.2702 37.6022 23.2565 37.5694 23.2565H37.4321V23H38.4583C38.7764 23 39.0101 23.0752 39.1593 23.2257C39.3094 23.3748 39.3845 23.5992 39.3845 23.8988C39.3845 24.0834 39.3522 24.249 39.2875 24.3953C39.2219 24.5431 39.1165 24.6594 38.9713 24.7442C38.8272 24.8276 38.6338 24.8694 38.3912 24.8694H38.324V25.5116C38.324 25.6156 38.3375 25.6806 38.3643 25.7066C38.3921 25.7312 38.4255 25.7435 38.4642 25.7435H38.6686ZM38.4061 23.2811H38.3211V24.5923H38.3643C38.4965 24.5923 38.5935 24.5397 38.6551 24.4343C38.7178 24.329 38.7491 24.156 38.7491 23.9152C38.7491 23.699 38.7208 23.5397 38.6641 23.4371C38.6084 23.3331 38.5224 23.2811 38.4061 23.2811Z" fill="white"/>
<path d="M40.245 25.7435V26H39.4143V25.7435H39.4352C39.4889 25.7435 39.5366 25.7257 39.5784 25.6902C39.6201 25.6532 39.6569 25.5746 39.6887 25.4542L40.3405 23H40.8923L41.5158 25.4624C41.5426 25.5609 41.5769 25.6327 41.6187 25.6778C41.6604 25.7216 41.7097 25.7435 41.7663 25.7435H41.7991V26H40.6701V25.7435H40.7924C40.8242 25.7435 40.8536 25.7353 40.8804 25.7189C40.9073 25.7011 40.9207 25.6662 40.9207 25.6142C40.9207 25.5746 40.9162 25.5342 40.9073 25.4932C40.9023 25.474 40.8978 25.4576 40.8938 25.4439C40.8908 25.4289 40.8884 25.4166 40.8864 25.407L40.7924 25.0253H40.0959L40.0258 25.3269C40.0188 25.3611 40.0099 25.407 39.999 25.4644C39.988 25.5219 39.9825 25.5705 39.9825 25.6101C39.9825 25.6512 39.9905 25.684 40.0064 25.7086C40.0233 25.7319 40.0531 25.7435 40.0959 25.7435H40.245ZM40.3554 23.9275L40.163 24.736H40.7253L40.5508 23.9316C40.5438 23.896 40.5364 23.8591 40.5284 23.8208C40.5205 23.7811 40.5125 23.7401 40.5046 23.6977C40.4877 23.6211 40.4722 23.5342 40.4583 23.4371C40.4424 23.526 40.425 23.6129 40.4061 23.6977C40.3882 23.7811 40.3713 23.8577 40.3554 23.9275Z" fill="white"/>
<path d="M42.9804 25.7435V26H41.8648V25.7435H41.9811C42.0199 25.7435 42.0567 25.7312 42.0915 25.7066C42.1273 25.6806 42.1452 25.6156 42.1452 25.5116V23.4904C42.1452 23.3988 42.1278 23.3372 42.093 23.3057C42.0592 23.2729 42.0219 23.2565 41.9811 23.2565H41.8648V23H42.967C43.1957 23 43.3771 23.0328 43.5114 23.0985C43.6456 23.1642 43.7415 23.2565 43.7992 23.3755C43.8579 23.4945 43.8872 23.6341 43.8872 23.7941C43.8872 23.9555 43.8673 24.0869 43.8275 24.1881C43.7878 24.2921 43.7351 24.3735 43.6694 24.4323C43.6048 24.4911 43.5327 24.5363 43.4532 24.5677L43.8007 25.3782C43.8564 25.5068 43.9041 25.5999 43.9439 25.6573C43.9836 25.7148 44.0289 25.7435 44.0796 25.7435H44.1005V26H43.9573C43.7803 26 43.6307 25.9761 43.5084 25.9282C43.3861 25.8803 43.2966 25.7784 43.2399 25.6224L42.9192 24.7134H42.7567V25.5116C42.7567 25.6156 42.7701 25.6806 42.7969 25.7066C42.8248 25.7312 42.8611 25.7435 42.9058 25.7435H42.9804ZM42.8879 23.2811H42.7567V24.4364H42.8939C43.0122 24.4364 43.0987 24.3878 43.1534 24.2907C43.2091 24.1922 43.2369 24.0431 43.2369 23.8434C43.2369 23.6423 43.2071 23.4986 43.1474 23.4124C43.0888 23.3249 43.0023 23.2811 42.8879 23.2811Z" fill="white"/>
<path d="M45.228 26H44.1646V25.7435H44.3272C44.363 25.7435 44.3913 25.7223 44.4122 25.6799C44.4341 25.6361 44.445 25.5814 44.445 25.5157V23.4822C44.445 23.4042 44.4316 23.3475 44.4047 23.3119C44.3789 23.275 44.3446 23.2565 44.3018 23.2565H44.1646V23H45.228C45.582 23 45.8609 23.1156 46.0647 23.3468C46.2686 23.578 46.3705 23.9316 46.3705 24.4077C46.3705 24.7127 46.3272 24.9856 46.2407 25.2264C46.1542 25.4672 46.026 25.6566 45.8559 25.7948C45.6859 25.9316 45.4766 26 45.228 26ZM45.1579 23.2893H45.0535V25.7066H45.1549C45.2792 25.7066 45.3826 25.6525 45.4652 25.5445C45.5487 25.4364 45.6123 25.2852 45.6561 25.091C45.6998 24.8953 45.7217 24.6676 45.7217 24.4077C45.7217 24.0178 45.6735 23.7339 45.577 23.5561C45.4806 23.3782 45.3409 23.2893 45.1579 23.2893Z" fill="white"/>
<path d="M47.3832 25.7435V26H46.5525V25.7435H46.5733C46.627 25.7435 46.6748 25.7257 46.7165 25.6902C46.7583 25.6532 46.7951 25.5746 46.8269 25.4542L47.4787 23H48.0305L48.6539 25.4624C48.6808 25.5609 48.7151 25.6327 48.7568 25.6778C48.7986 25.7216 48.8478 25.7435 48.9045 25.7435H48.9373V26H47.8083V25.7435H47.9306C47.9624 25.7435 47.9917 25.7353 48.0186 25.7189C48.0454 25.7011 48.0588 25.6662 48.0588 25.6142C48.0588 25.5746 48.0544 25.5342 48.0454 25.4932C48.0404 25.474 48.036 25.4576 48.032 25.4439C48.029 25.4289 48.0265 25.4166 48.0245 25.407L47.9306 25.0253H47.234L47.164 25.3269C47.157 25.3611 47.148 25.407 47.1371 25.4644C47.1262 25.5219 47.1207 25.5705 47.1207 25.6101C47.1207 25.6512 47.1287 25.684 47.1446 25.7086C47.1615 25.7319 47.1913 25.7435 47.234 25.7435H47.3832ZM47.4936 23.9275L47.3012 24.736H47.8634L47.6889 23.9316C47.682 23.896 47.6745 23.8591 47.6666 23.8208C47.6586 23.7811 47.6507 23.7401 47.6427 23.6977C47.6258 23.6211 47.6104 23.5342 47.5965 23.4371C47.5806 23.526 47.5632 23.6129 47.5443 23.6977C47.5264 23.7811 47.5095 23.8577 47.4936 23.9275Z" fill="white"/>
<path d="M51 25.0376L50.9851 26H49.079V25.7599L50.2244 23.2893H49.6681C49.5687 23.2893 49.5041 23.3249 49.4742 23.396C49.4454 23.4672 49.4265 23.5691 49.4176 23.7018L49.4026 23.9624H49.1372L49.1521 23H50.918V23.2442L49.7695 25.7107H50.3497C50.4482 25.7107 50.5237 25.6867 50.5764 25.6389C50.6271 25.591 50.6619 25.5308 50.6808 25.4583C50.7007 25.3858 50.7136 25.3112 50.7196 25.2346L50.7345 25.0376H51Z" fill="white"/>
<path d="M55.3876 25.711V25.9601H54V25.711H54.1632C54.214 25.711 54.2572 25.6944 54.2931 25.6611C54.3302 25.6266 54.3488 25.5754 54.3488 25.5076V23.4864C54.3488 23.4266 54.3333 23.3801 54.3024 23.3468C54.2727 23.3123 54.2337 23.295 54.1855 23.295H54V23.0458H55.3876V23.295H55.2577C55.1588 23.295 55.1093 23.3601 55.1093 23.4904V24.4831L55.6176 23.8731C55.6968 23.7814 55.7555 23.703 55.7938 23.6379C55.8334 23.5728 55.8532 23.5043 55.8532 23.4326C55.8532 23.3807 55.8359 23.3442 55.8013 23.3229C55.7679 23.3017 55.7067 23.291 55.6176 23.291V23.0458H56.7696V23.291C56.6558 23.291 56.5532 23.3243 56.4617 23.3907C56.3701 23.4571 56.2817 23.5382 56.1964 23.6339L55.6937 24.1841L56.4357 25.3522C56.4938 25.4439 56.5439 25.5156 56.586 25.5674C56.6614 25.6631 56.7541 25.711 56.8642 25.711H56.8865V25.9601H56.5229C56.3856 25.9601 56.2706 25.9515 56.1778 25.9342C56.0863 25.9156 56.0078 25.8857 55.9422 25.8445C55.8755 25.8047 55.8155 25.7508 55.7623 25.6831C55.7091 25.6153 55.6535 25.5296 55.5954 25.4259L55.1928 24.7143L55.1093 24.7721V25.5156C55.1093 25.5781 55.1273 25.6266 55.1631 25.6611C55.2002 25.6944 55.2441 25.711 55.2948 25.711H55.3876Z" fill="#ED7D23"/>
<path d="M59.9231 25.711V25.9601H58.8899V25.711H58.9158C58.9826 25.711 59.042 25.6937 59.0939 25.6591C59.1459 25.6233 59.1916 25.5468 59.2312 25.4299L60.0419 23.0458H60.7282L61.5036 25.4379C61.537 25.5336 61.5797 25.6033 61.6316 25.6472C61.6836 25.6897 61.7448 25.711 61.8153 25.711H61.8561V25.9601H60.4518V25.711H60.6039C60.6435 25.711 60.68 25.703 60.7134 25.687C60.7468 25.6698 60.7635 25.6359 60.7635 25.5854C60.7635 25.5468 60.7579 25.5076 60.7468 25.4678C60.7406 25.4492 60.735 25.4332 60.7301 25.4199C60.7264 25.4053 60.7233 25.3934 60.7208 25.3841L60.6039 25.0133H59.7376L59.6504 25.3063C59.6418 25.3395 59.6306 25.3841 59.617 25.4399C59.6034 25.4957 59.5966 25.5429 59.5966 25.5814C59.5966 25.6213 59.6065 25.6532 59.6263 25.6771C59.6473 25.6997 59.6844 25.711 59.7376 25.711H59.9231ZM60.0604 23.9468L59.8211 24.7322H60.5205L60.3034 23.9508C60.2948 23.9163 60.2855 23.8804 60.2756 23.8432C60.2657 23.8047 60.2558 23.7648 60.2459 23.7236C60.2249 23.6492 60.2057 23.5648 60.1884 23.4704C60.1686 23.5568 60.147 23.6412 60.1235 23.7236C60.1012 23.8047 60.0802 23.8791 60.0604 23.9468Z" fill="#ED7D23"/>
<path d="M66.182 23.5761L65.414 25.9601H64.9614L64.16 23.4744C64.1377 23.404 64.1062 23.3568 64.0654 23.3329C64.0246 23.3076 63.985 23.295 63.9467 23.295H63.8335V23.0458H65.2044V23.295H65.0226C64.9496 23.295 64.9132 23.3249 64.9132 23.3847C64.9132 23.414 64.9181 23.4485 64.928 23.4884C64.9379 23.5282 64.9478 23.5654 64.9577 23.6L65.3157 24.7841C65.3207 24.8066 65.3275 24.8425 65.3361 24.8917C65.346 24.9395 65.3553 24.9894 65.3639 25.0412C65.3726 25.093 65.3782 25.1355 65.3806 25.1688C65.3856 25.1223 65.3967 25.0618 65.414 24.9874C65.4313 24.9116 65.448 24.8505 65.4641 24.804L65.824 23.6419C65.8413 23.5847 65.8561 23.5336 65.8685 23.4884C65.8821 23.4432 65.8889 23.406 65.8889 23.3767C65.8889 23.3568 65.8809 23.3382 65.8648 23.3209C65.85 23.3037 65.824 23.295 65.7869 23.295H65.5698V23.0458H66.5493V23.295H66.4176C66.362 23.295 66.3181 23.3123 66.2859 23.3468C66.2537 23.3801 66.2191 23.4565 66.182 23.5761Z" fill="#ED7D23"/>
<path d="M70.085 26C69.7795 26 69.5272 25.9375 69.3281 25.8126C69.1265 25.6877 68.9763 25.5123 68.8773 25.2864C68.7784 25.0605 68.7289 24.7967 68.7289 24.495C68.7289 24.192 68.779 23.9289 68.8792 23.7056C68.9794 23.4837 69.1296 23.311 69.33 23.1874C69.5316 23.0625 69.7845 23 70.0887 23C70.3781 23 70.623 23.0618 70.8233 23.1854C71.0224 23.3103 71.1739 23.485 71.2778 23.7096C71.3817 23.9329 71.4336 24.196 71.4336 24.499C71.4336 24.7993 71.3817 25.0625 71.2778 25.2884C71.1739 25.513 71.0212 25.6877 70.8196 25.8126C70.6192 25.9375 70.3744 26 70.085 26ZM70.085 25.703C70.2878 25.703 70.43 25.598 70.5117 25.388C70.5945 25.1767 70.6359 24.8804 70.6359 24.499C70.6359 24.1176 70.5951 23.8226 70.5135 23.614C70.4331 23.404 70.2915 23.299 70.0887 23.299C69.8834 23.299 69.7381 23.404 69.6528 23.614C69.5687 23.8226 69.5266 24.1176 69.5266 24.499C69.5266 24.8804 69.5687 25.1767 69.6528 25.388C69.7381 25.598 69.8822 25.703 70.085 25.703Z" fill="#ED7D23"/>
<path d="M74.6947 26C74.4907 26 74.3237 25.9814 74.1939 25.9442C74.0652 25.9056 73.9657 25.8565 73.8952 25.7967C73.8235 25.7369 73.774 25.6744 73.7468 25.6093C73.7208 25.5442 73.7078 25.4857 73.7078 25.4339C73.7078 25.3103 73.7326 25.2159 73.782 25.1508C73.8315 25.0844 73.894 25.0385 73.9694 25.0133C74.0461 24.988 74.1271 24.9754 74.2124 24.9754C74.2124 25.1601 74.2415 25.3076 74.2996 25.4179C74.3577 25.5269 74.4301 25.6053 74.5166 25.6532C74.6032 25.6997 74.691 25.7229 74.7801 25.7229C74.9112 25.7229 75.0132 25.6824 75.0861 25.6013C75.1604 25.5189 75.1975 25.4306 75.1975 25.3362C75.1975 25.2485 75.1702 25.1734 75.1158 25.111C75.0614 25.0472 74.9841 24.9887 74.8839 24.9355C74.7838 24.8811 74.665 24.8239 74.5278 24.7641C74.3324 24.6764 74.1834 24.586 74.0807 24.493C73.9744 24.3987 73.8995 24.297 73.8562 24.188C73.813 24.0791 73.7913 23.9648 73.7913 23.8452C73.7913 23.6711 73.8365 23.5216 73.9267 23.3967C74.0158 23.2718 74.1376 23.1754 74.2922 23.1076C74.4468 23.0385 74.6205 23.004 74.8135 23.004C75.0187 23.004 75.1863 23.0299 75.3162 23.0817C75.4448 23.1336 75.54 23.1993 75.6019 23.2791C75.6637 23.3575 75.6946 23.4372 75.6946 23.5183C75.6946 23.6219 75.6532 23.709 75.5703 23.7794C75.4887 23.8485 75.3465 23.8831 75.1437 23.8831C75.1437 23.7953 75.1276 23.7037 75.0954 23.608C75.062 23.5163 75.0132 23.4399 74.9489 23.3787C74.8858 23.3176 74.8104 23.287 74.7226 23.287C74.6286 23.287 74.5494 23.3116 74.4851 23.3608C74.4208 23.4086 74.3886 23.487 74.3886 23.596C74.3886 23.6505 74.4047 23.7063 74.4369 23.7635C74.4703 23.8206 74.5358 23.8824 74.6335 23.9488C74.7312 24.0166 74.8734 24.091 75.0602 24.1721C75.2531 24.2532 75.4034 24.3409 75.511 24.4352C75.6185 24.5296 75.6934 24.6306 75.7354 24.7382C75.7787 24.8458 75.8003 24.9648 75.8003 25.095C75.8003 25.2718 75.7558 25.4279 75.6668 25.5635C75.5765 25.7003 75.4485 25.8073 75.2828 25.8844C75.1171 25.9615 74.921 26 74.6947 26Z" fill="#ED7D23"/>
<path d="M79.3601 25.711V25.9601H77.9725V25.711H78.1747C78.2168 25.711 78.2514 25.691 78.2786 25.6512C78.3071 25.61 78.3213 25.5621 78.3213 25.5076V23.5103C78.3213 23.4372 78.3034 23.3834 78.2675 23.3488C78.2329 23.313 78.1902 23.295 78.1395 23.295H77.9725V23.0458H79.3601V23.295H79.2191C79.1276 23.295 79.0819 23.3601 79.0819 23.4904V24.2977H79.8907V23.5023C79.8907 23.3641 79.8375 23.295 79.7311 23.295H79.6143V23.0458H81V23.295H80.7997C80.7007 23.295 80.6512 23.3641 80.6512 23.5023V25.4997C80.6512 25.5621 80.6649 25.6133 80.6921 25.6532C80.7205 25.6917 80.7564 25.711 80.7997 25.711H81V25.9601H79.6143V25.711H79.7349C79.788 25.711 79.827 25.6904 79.8517 25.6492C79.8777 25.6066 79.8907 25.5508 79.8907 25.4817V24.5807H79.0819V25.5076C79.0819 25.5621 79.093 25.61 79.1153 25.6512C79.1388 25.691 79.1734 25.711 79.2191 25.711H79.3601Z" fill="#ED7D23"/>
<path d="M32.2541 19.16C32.0141 19.16 31.7974 19.1317 31.6041 19.075C31.4107 19.0217 31.2441 18.94 31.1041 18.83C30.9641 18.72 30.8557 18.5833 30.7791 18.42C30.7057 18.26 30.6691 18.0733 30.6691 17.86C30.6691 17.7833 30.6757 17.6933 30.6891 17.59C30.7024 17.4867 30.7274 17.37 30.7641 17.24C30.8007 17.1067 30.8557 16.9583 30.9291 16.795L31.5441 17.01C31.5074 17.1133 31.4757 17.2083 31.4491 17.295C31.4224 17.3783 31.4024 17.4567 31.3891 17.53C31.3757 17.6 31.3691 17.67 31.3691 17.74C31.3691 17.87 31.3991 17.99 31.4591 18.1C31.5191 18.21 31.6157 18.2967 31.7491 18.36C31.8824 18.4267 32.0574 18.46 32.2741 18.46C32.4741 18.46 32.6407 18.4367 32.7741 18.39C32.9074 18.3467 33.0124 18.285 33.0891 18.205C33.1657 18.1283 33.2207 18.0383 33.2541 17.935C33.2874 17.8317 33.3041 17.72 33.3041 17.6C33.3041 17.5067 33.2924 17.4017 33.2691 17.285C33.2491 17.1683 33.2191 17.0417 33.1791 16.905C33.1391 16.765 33.0941 16.6183 33.0441 16.465L33.7441 16.285C33.7774 16.4117 33.8041 16.52 33.8241 16.61C33.8474 16.7 33.8674 16.775 33.8841 16.835C33.9007 16.8917 33.9141 16.9383 33.9241 16.975C33.9574 17.075 33.9974 17.1517 34.0441 17.205C34.0941 17.255 34.1491 17.2883 34.2091 17.305C34.2724 17.3217 34.3424 17.33 34.4191 17.33C34.4824 17.33 34.5407 17.32 34.5941 17.3C34.6474 17.28 34.6957 17.2383 34.7391 17.175C34.7857 17.1083 34.8274 17.0067 34.8641 16.87C34.9007 16.7333 34.9341 16.545 34.9641 16.305L35.6241 16.41C35.6107 16.4867 35.5974 16.5683 35.5841 16.655C35.5707 16.7417 35.5591 16.8233 35.5491 16.9C35.5391 16.9733 35.5341 17.0333 35.5341 17.08C35.5341 17.1233 35.5457 17.1633 35.5691 17.2C35.5957 17.2367 35.6424 17.2667 35.7091 17.29C35.7757 17.3133 35.8707 17.325 35.9941 17.325C36.0841 17.325 36.1624 17.3167 36.2291 17.3C36.2957 17.28 36.3474 17.245 36.3841 17.195C36.4207 17.1417 36.4391 17.0667 36.4391 16.97C36.4391 16.8867 36.4257 16.7867 36.3991 16.67C36.3724 16.55 36.3374 16.42 36.2941 16.28C36.2541 16.14 36.2074 15.9967 36.1541 15.85L36.8591 15.64C36.9124 15.7833 36.9591 15.9367 36.9991 16.1C37.0424 16.26 37.0757 16.4167 37.0991 16.57C37.1257 16.72 37.1391 16.8517 37.1391 16.965C37.1391 17.1417 37.1124 17.2967 37.0591 17.43C37.0091 17.5633 36.9341 17.675 36.8341 17.765C36.7374 17.8517 36.6191 17.9167 36.4791 17.96C36.3391 18.0033 36.1824 18.025 36.0091 18.025C35.8824 18.025 35.7657 18.0117 35.6591 17.985C35.5557 17.955 35.4657 17.9133 35.3891 17.86C35.3157 17.8067 35.2591 17.7417 35.2191 17.665C35.1791 17.585 35.1607 17.495 35.1641 17.395H35.3341C35.2841 17.5783 35.2157 17.715 35.1291 17.805C35.0424 17.895 34.9457 17.955 34.8391 17.985C34.7324 18.0117 34.6241 18.025 34.5141 18.025C34.4274 18.025 34.3441 18.0167 34.2641 18C34.1841 17.9833 34.1107 17.9567 34.0441 17.92C33.9807 17.88 33.9257 17.8283 33.8791 17.765C33.8324 17.6983 33.8007 17.6183 33.7841 17.525L33.9691 17.725C33.9624 17.9517 33.9174 18.1533 33.8341 18.33C33.7507 18.5067 33.6341 18.6567 33.4841 18.78C33.3374 18.9033 33.1591 18.9967 32.9491 19.06C32.7424 19.1267 32.5107 19.16 32.2541 19.16ZM34.9841 14.93C34.9007 14.93 34.8274 14.8983 34.7641 14.835C34.7041 14.7717 34.6741 14.6967 34.6741 14.61C34.6741 14.5233 34.7041 14.45 34.7641 14.39C34.8274 14.33 34.9007 14.3 34.9841 14.3C35.0707 14.3 35.1441 14.33 35.2041 14.39C35.2641 14.45 35.2941 14.5233 35.2941 14.61C35.2941 14.6967 35.2641 14.7717 35.2041 14.835C35.1441 14.8983 35.0707 14.93 34.9841 14.93ZM34.5841 15.59C34.5007 15.59 34.4274 15.5583 34.3641 15.495C34.3041 15.4317 34.2741 15.3567 34.2741 15.27C34.2741 15.1833 34.3041 15.11 34.3641 15.05C34.4274 14.99 34.5007 14.96 34.5841 14.96C34.6707 14.96 34.7441 14.99 34.8041 15.05C34.8641 15.11 34.8941 15.1833 34.8941 15.27C34.8941 15.3567 34.8641 15.4317 34.8041 15.495C34.7441 15.5583 34.6707 15.59 34.5841 15.59ZM35.3591 15.59C35.2757 15.59 35.2024 15.5583 35.1391 15.495C35.0791 15.4317 35.0491 15.3567 35.0491 15.27C35.0491 15.1833 35.0791 15.11 35.1391 15.05C35.2024 14.99 35.2757 14.96 35.3591 14.96C35.4457 14.96 35.5191 14.99 35.5791 15.05C35.6391 15.11 35.6691 15.1833 35.6691 15.27C35.6691 15.3567 35.6391 15.4317 35.5791 15.495C35.5191 15.5583 35.4457 15.59 35.3591 15.59ZM37.6746 19.15L37.5296 18.45C37.7663 18.42 37.973 18.3833 38.1496 18.34C38.3263 18.3 38.4746 18.2433 38.5946 18.17C38.7146 18.0967 38.8046 17.9967 38.8646 17.87C38.9246 17.74 38.9546 17.5733 38.9546 17.37C38.9546 17.2967 38.948 17.2233 38.9346 17.15C38.9213 17.0733 38.9013 17.0033 38.8746 16.94C38.848 16.8767 38.813 16.825 38.7696 16.785C38.7296 16.745 38.6813 16.725 38.6246 16.725C38.5646 16.725 38.5113 16.7467 38.4646 16.79C38.418 16.83 38.3813 16.8817 38.3546 16.945C38.328 17.005 38.3146 17.0667 38.3146 17.13C38.3146 17.1767 38.3263 17.2167 38.3496 17.25C38.373 17.28 38.408 17.3033 38.4546 17.32C38.5013 17.3333 38.5596 17.34 38.6296 17.34C38.7096 17.34 38.7913 17.3317 38.8746 17.315C38.9613 17.295 39.0396 17.2683 39.1096 17.235L39.1296 17.78C39.0496 17.8433 38.958 17.9 38.8546 17.95C38.7513 17.9967 38.6263 18.02 38.4796 18.02C38.3596 18.02 38.248 18.0067 38.1446 17.98C38.0413 17.95 37.9496 17.905 37.8696 17.845C37.793 17.785 37.733 17.7083 37.6896 17.615C37.6463 17.5183 37.6246 17.4033 37.6246 17.27C37.6246 17.1067 37.6513 16.9483 37.7046 16.795C37.758 16.6417 37.8313 16.505 37.9246 16.385C38.0213 16.2617 38.1313 16.165 38.2546 16.095C38.3813 16.0217 38.5146 15.985 38.6546 15.985C38.8213 15.985 38.9663 16.0267 39.0896 16.11C39.2163 16.1933 39.3213 16.3033 39.4046 16.44C39.488 16.5733 39.5513 16.7183 39.5946 16.875C39.638 17.0317 39.6596 17.1817 39.6596 17.325C39.6596 17.7017 39.5796 18.0217 39.4196 18.285C39.2596 18.5483 39.0313 18.7517 38.7346 18.895C38.438 19.0417 38.0846 19.1267 37.6746 19.15ZM41.4649 18.025C41.1549 18.025 40.9149 17.9933 40.7449 17.93C40.5782 17.8667 40.4615 17.7683 40.3949 17.635C40.3282 17.4983 40.2899 17.3267 40.2799 17.12L40.1749 14.34H40.8749L40.9799 16.785C40.9865 16.9383 41.0032 17.0533 41.0299 17.13C41.0565 17.2067 41.1065 17.2583 41.1799 17.285C41.2565 17.3117 41.3682 17.325 41.5149 17.325C41.6415 17.325 41.7315 17.3583 41.7849 17.425C41.8415 17.4883 41.8699 17.5683 41.8699 17.665C41.8699 17.7683 41.8349 17.855 41.7649 17.925C41.6949 17.9917 41.5949 18.025 41.4649 18.025ZM41.4717 18.025L41.5217 17.325H42.2367C42.3067 17.325 42.3683 17.3217 42.4217 17.315C42.475 17.305 42.5183 17.29 42.5517 17.27C42.5883 17.25 42.615 17.225 42.6317 17.195C42.6483 17.165 42.6567 17.13 42.6567 17.09C42.6567 17.05 42.635 16.9867 42.5917 16.9C42.5517 16.81 42.4633 16.7017 42.3267 16.575C42.2533 16.5083 42.1733 16.4383 42.0867 16.365C42.0033 16.2883 41.9233 16.2167 41.8467 16.15C41.77 16.08 41.7067 16.0183 41.6567 15.965C41.6067 15.9117 41.5817 15.8733 41.5817 15.85C41.5817 15.8 41.585 15.745 41.5917 15.685C41.5983 15.625 41.6083 15.57 41.6217 15.52C41.6383 15.47 41.66 15.4333 41.6867 15.41C41.7433 15.3567 41.8267 15.295 41.9367 15.225C42.05 15.1517 42.185 15.0733 42.3417 14.99C42.4983 14.9033 42.6733 14.8133 42.8667 14.72C43.0633 14.6233 43.2733 14.5267 43.4967 14.43L43.7817 15.04C43.5983 15.12 43.425 15.1983 43.2617 15.275C43.0983 15.3483 42.945 15.4217 42.8017 15.495C42.6617 15.565 42.5317 15.635 42.4117 15.705C42.295 15.7717 42.1917 15.8383 42.1017 15.905L42.1667 15.535C42.45 15.7517 42.675 15.9467 42.8417 16.12C43.0117 16.2933 43.1383 16.4483 43.2217 16.585C43.305 16.7183 43.36 16.8383 43.3867 16.945C43.4133 17.0483 43.4267 17.14 43.4267 17.22C43.4267 17.3 43.4067 17.3867 43.3667 17.48C43.33 17.57 43.2617 17.6567 43.1617 17.74C43.065 17.8233 42.9283 17.8917 42.7517 17.945C42.575 17.9983 42.3483 18.025 42.0717 18.025H41.4717ZM45.2236 19.15L44.9686 18.51C45.2552 18.41 45.4869 18.3 45.6636 18.18C45.8436 18.06 45.9752 17.9317 46.0586 17.795C46.1452 17.6583 46.1886 17.5167 46.1886 17.37C46.1886 17.2767 46.1752 17.18 46.1486 17.08C46.1219 16.9767 46.0836 16.8683 46.0336 16.755C45.9869 16.6417 45.9302 16.5233 45.8636 16.4L46.5186 16.085C46.6352 16.3083 46.7252 16.5217 46.7886 16.725C46.8552 16.9283 46.8886 17.1183 46.8886 17.295C46.8886 17.4583 46.8669 17.615 46.8236 17.765C46.7836 17.915 46.7202 18.055 46.6336 18.185C46.5502 18.3183 46.4419 18.4433 46.3086 18.56C46.1752 18.6767 46.0186 18.7833 45.8386 18.88C45.6586 18.98 45.4536 19.07 45.2236 19.15ZM46.3286 15.575C46.2252 15.575 46.1369 15.54 46.0636 15.47C45.9936 15.4 45.9586 15.3133 45.9586 15.21C45.9586 15.1067 45.9936 15.0183 46.0636 14.945C46.1369 14.8717 46.2252 14.835 46.3286 14.835C46.4286 14.835 46.5136 14.8717 46.5836 14.945C46.6569 15.0183 46.6936 15.1067 46.6936 15.21C46.6936 15.3133 46.6569 15.4 46.5836 15.47C46.5136 15.54 46.4286 15.575 46.3286 15.575ZM47.5895 18L47.4845 14.34H48.1845L48.2895 18H47.5895ZM48.7316 17.8L48.9766 17.165C49.1 17.2183 49.2183 17.2583 49.3316 17.285C49.445 17.3117 49.5583 17.325 49.6716 17.325C49.7883 17.325 49.885 17.315 49.9616 17.295C50.0416 17.2717 50.1016 17.2383 50.1416 17.195C50.1816 17.1517 50.2016 17.1 50.2016 17.04C50.2016 16.9833 50.1833 16.905 50.1466 16.805C50.1133 16.705 50.0516 16.575 49.9616 16.415C49.8716 16.2517 49.74 16.05 49.5666 15.81L50.1616 15.415C50.3216 15.6417 50.46 15.8633 50.5766 16.08C50.6933 16.2933 50.7833 16.4933 50.8466 16.68C50.9133 16.8633 50.9466 17.025 50.9466 17.165C50.9466 17.3383 50.9 17.49 50.8066 17.62C50.7166 17.7467 50.5816 17.8467 50.4016 17.92C50.225 17.9933 50.0066 18.03 49.7466 18.03C49.65 18.03 49.5416 18.0217 49.4216 18.005C49.3016 17.9883 49.18 17.9633 49.0566 17.93C48.9366 17.8967 48.8283 17.8533 48.7316 17.8ZM51.0683 19.155L50.8133 18.535C50.9899 18.475 51.1516 18.405 51.2983 18.325C51.4483 18.245 51.5783 18.1567 51.6883 18.06C51.7983 17.9633 51.8833 17.8583 51.9433 17.745C52.0033 17.6283 52.0333 17.5033 52.0333 17.37C52.0333 17.23 52.0016 17.0767 51.9383 16.91C51.8749 16.7433 51.7983 16.5733 51.7083 16.4L52.3633 16.085C52.4233 16.1883 52.4749 16.3 52.5183 16.42C52.5649 16.5367 52.6033 16.6417 52.6333 16.735C52.6633 16.8283 52.6833 16.8917 52.6933 16.925C52.7399 17.085 52.8033 17.1917 52.8833 17.245C52.9666 17.2983 53.0999 17.325 53.2833 17.325C53.4099 17.325 53.4999 17.3583 53.5533 17.425C53.6099 17.4883 53.6383 17.5683 53.6383 17.665C53.6383 17.7683 53.6033 17.855 53.5333 17.925C53.4633 17.9917 53.3633 18.025 53.2333 18.025C53.0966 18.025 52.9766 18.005 52.8733 17.965C52.7699 17.925 52.6866 17.8667 52.6233 17.79C52.5633 17.7133 52.5249 17.6233 52.5083 17.52L52.6933 17.625C52.6733 17.8017 52.6149 17.9683 52.5183 18.125C52.4249 18.285 52.3033 18.4317 52.1533 18.565C52.0033 18.6983 51.8349 18.815 51.6483 18.915C51.4616 19.015 51.2683 19.095 51.0683 19.155ZM53.2393 18.025L53.2893 17.325C53.4893 17.325 53.6426 17.315 53.7493 17.295C53.8559 17.275 53.9293 17.2383 53.9693 17.185C54.0126 17.1283 54.0343 17.0483 54.0343 16.945C54.0343 16.8517 54.0209 16.74 53.9943 16.61C53.9709 16.48 53.9393 16.345 53.8993 16.205C53.8626 16.065 53.8226 15.9367 53.7793 15.82L54.4693 15.63C54.5126 15.7433 54.5543 15.875 54.5943 16.025C54.6343 16.175 54.6676 16.33 54.6943 16.49C54.7209 16.6467 54.7343 16.7983 54.7343 16.945C54.7343 17.1717 54.6976 17.3567 54.6243 17.5C54.5509 17.64 54.4476 17.7483 54.3143 17.825C54.1843 17.9017 54.0276 17.955 53.8443 17.985C53.6609 18.0117 53.4593 18.025 53.2393 18.025ZM53.9943 19.69C53.9109 19.69 53.8409 19.6617 53.7843 19.605C53.7309 19.5483 53.7043 19.48 53.7043 19.4C53.7043 19.3167 53.7309 19.245 53.7843 19.185C53.8409 19.125 53.9109 19.095 53.9943 19.095C54.0743 19.095 54.1426 19.125 54.1993 19.185C54.2559 19.245 54.2843 19.3167 54.2843 19.4C54.2843 19.48 54.2559 19.5483 54.1993 19.605C54.1426 19.6617 54.0743 19.69 53.9943 19.69ZM54.3793 19.045C54.2959 19.045 54.2259 19.0167 54.1693 18.96C54.1159 18.9033 54.0893 18.835 54.0893 18.755C54.0893 18.6717 54.1159 18.6 54.1693 18.54C54.2259 18.48 54.2959 18.45 54.3793 18.45C54.4593 18.45 54.5276 18.48 54.5843 18.54C54.6409 18.6 54.6693 18.6717 54.6693 18.755C54.6693 18.835 54.6409 18.9033 54.5843 18.96C54.5276 19.0167 54.4593 19.045 54.3793 19.045ZM53.6293 19.045C53.5459 19.045 53.4759 19.0167 53.4193 18.96C53.3626 18.9033 53.3343 18.835 53.3343 18.755C53.3343 18.6717 53.3626 18.6 53.4193 18.54C53.4759 18.48 53.5459 18.45 53.6293 18.45C53.7059 18.45 53.7726 18.48 53.8293 18.54C53.8893 18.6 53.9193 18.6717 53.9193 18.755C53.9193 18.835 53.8893 18.9033 53.8293 18.96C53.7726 19.0167 53.7059 19.045 53.6293 19.045ZM56.5675 17.86C56.5675 17.7833 56.5742 17.6933 56.5875 17.59C56.6008 17.4867 56.6258 17.37 56.6625 17.24C56.6992 17.1067 56.7542 16.9583 56.8275 16.795L57.4425 17.01C57.4058 17.1133 57.3742 17.2083 57.3475 17.295C57.3208 17.3783 57.3008 17.4567 57.2875 17.53C57.2742 17.6 57.2675 17.67 57.2675 17.74C57.2675 17.9033 57.3042 18.0367 57.3775 18.14C57.4542 18.2467 57.5608 18.325 57.6975 18.375C57.8342 18.4283 57.9925 18.455 58.1725 18.455C58.3792 18.455 58.5492 18.4267 58.6825 18.37C58.8158 18.3167 58.9192 18.245 58.9925 18.155C59.0658 18.0683 59.1175 17.9733 59.1475 17.87C59.1775 17.7633 59.1925 17.66 59.1925 17.56C59.1925 17.4233 59.1692 17.2617 59.1225 17.075C59.0758 16.885 58.9925 16.6717 58.8725 16.435L59.5175 16.16C59.5842 16.2767 59.6458 16.4133 59.7025 16.57C59.7592 16.7233 59.8042 16.8833 59.8375 17.05C59.8742 17.2167 59.8925 17.375 59.8925 17.525C59.8925 17.6583 59.8758 17.8 59.8425 17.95C59.8092 18.0967 59.7525 18.2417 59.6725 18.385C59.5958 18.5283 59.4908 18.6567 59.3575 18.77C59.2242 18.8867 59.0592 18.98 58.8625 19.05C58.6658 19.12 58.4308 19.155 58.1575 19.155C57.9375 19.155 57.7308 19.13 57.5375 19.08C57.3475 19.0333 57.1792 18.9583 57.0325 18.855C56.8892 18.7517 56.7758 18.6167 56.6925 18.45C56.6092 18.2867 56.5675 18.09 56.5675 17.86ZM58.1975 15.96C58.0942 15.96 58.0058 15.925 57.9325 15.855C57.8625 15.785 57.8275 15.6983 57.8275 15.595C57.8275 15.4917 57.8625 15.4033 57.9325 15.33C58.0058 15.2567 58.0942 15.22 58.1975 15.22C58.2975 15.22 58.3825 15.2567 58.4525 15.33C58.5258 15.4033 58.5625 15.4917 58.5625 15.595C58.5625 15.6983 58.5258 15.785 58.4525 15.855C58.3825 15.925 58.2975 15.96 58.1975 15.96ZM61.7286 18.025C61.4186 18.025 61.1786 17.9933 61.0086 17.93C60.8419 17.8667 60.7252 17.7683 60.6586 17.635C60.5919 17.4983 60.5536 17.3267 60.5436 17.12L60.4386 14.34H61.1386L61.2436 16.785C61.2502 16.9383 61.2669 17.0533 61.2936 17.13C61.3202 17.2067 61.3702 17.2583 61.4436 17.285C61.5202 17.3117 61.6319 17.325 61.7786 17.325C61.9052 17.325 61.9952 17.3583 62.0486 17.425C62.1052 17.4883 62.1336 17.5683 62.1336 17.665C62.1336 17.7683 62.0986 17.855 62.0286 17.925C61.9586 17.9917 61.8586 18.025 61.7286 18.025ZM61.7354 18.025L61.7854 17.325C61.9854 17.325 62.1387 17.315 62.2454 17.295C62.352 17.275 62.4254 17.2383 62.4654 17.185C62.5087 17.1283 62.5304 17.0483 62.5304 16.945C62.5304 16.8517 62.517 16.74 62.4904 16.61C62.467 16.48 62.4354 16.345 62.3954 16.205C62.3587 16.065 62.3187 15.9367 62.2754 15.82L62.9654 15.63C63.0087 15.7433 63.0504 15.875 63.0904 16.025C63.1304 16.175 63.1637 16.33 63.1904 16.49C63.217 16.6467 63.2304 16.7983 63.2304 16.945C63.2304 17.1717 63.1937 17.3567 63.1204 17.5C63.047 17.64 62.9437 17.7483 62.8104 17.825C62.6804 17.9017 62.5237 17.955 62.3404 17.985C62.157 18.0117 61.9554 18.025 61.7354 18.025ZM62.9704 19.185C62.8737 19.185 62.7904 19.15 62.7204 19.08C62.6537 19.0133 62.6204 18.9333 62.6204 18.84C62.6204 18.7433 62.6537 18.66 62.7204 18.59C62.7904 18.52 62.8737 18.485 62.9704 18.485C63.0637 18.485 63.1437 18.52 63.2104 18.59C63.277 18.66 63.3104 18.7433 63.3104 18.84C63.3104 18.9333 63.277 19.0133 63.2104 19.08C63.1437 19.15 63.0637 19.185 62.9704 19.185ZM62.1054 19.185C62.0087 19.185 61.9254 19.15 61.8554 19.08C61.7887 19.0133 61.7554 18.9333 61.7554 18.84C61.7554 18.7433 61.7887 18.66 61.8554 18.59C61.9254 18.52 62.0087 18.485 62.1054 18.485C62.1987 18.485 62.2787 18.52 62.3454 18.59C62.412 18.66 62.4454 18.7433 62.4454 18.84C62.4454 18.9333 62.412 19.0133 62.3454 19.08C62.2787 19.15 62.1987 19.185 62.1054 19.185ZM63.9322 18L63.8272 14.34H64.5272L64.6322 18H63.9322ZM64.8525 19.15L64.5975 18.51C64.8841 18.41 65.1158 18.3 65.2925 18.18C65.4725 18.06 65.6041 17.9317 65.6875 17.795C65.7741 17.6583 65.8175 17.5167 65.8175 17.37C65.8175 17.2767 65.8041 17.18 65.7775 17.08C65.7508 16.9767 65.7125 16.8683 65.6625 16.755C65.6158 16.6417 65.5591 16.5233 65.4925 16.4L66.1475 16.085C66.2641 16.3083 66.3541 16.5217 66.4175 16.725C66.4841 16.9283 66.5175 17.1183 66.5175 17.295C66.5175 17.4583 66.4958 17.615 66.4525 17.765C66.4125 17.915 66.3491 18.055 66.2625 18.185C66.1791 18.3183 66.0708 18.4433 65.9375 18.56C65.8041 18.6767 65.6475 18.7833 65.4675 18.88C65.2875 18.98 65.0825 19.07 64.8525 19.15ZM70.3447 18.105L70.4747 17.405C70.7147 17.405 70.9447 17.3933 71.1647 17.37C71.3881 17.3467 71.5997 17.3 71.7997 17.23C72.0031 17.16 72.1931 17.0567 72.3697 16.92C72.5464 16.7833 72.7064 16.6 72.8497 16.37L73.4097 16.625C73.3897 16.6883 73.3731 16.75 73.3597 16.81C73.3464 16.8667 73.3397 16.9133 73.3397 16.95C73.3397 17.0267 73.3581 17.0933 73.3947 17.15C73.4347 17.2067 73.5014 17.25 73.5947 17.28C73.6881 17.31 73.8164 17.325 73.9797 17.325C74.1064 17.325 74.1964 17.3583 74.2497 17.425C74.3031 17.4883 74.3297 17.5683 74.3297 17.665C74.3297 17.7683 74.2947 17.855 74.2247 17.925C74.1581 17.9917 74.0597 18.025 73.9297 18.025C73.6997 18.025 73.4997 17.9933 73.3297 17.93C73.1631 17.8667 73.0314 17.7783 72.9347 17.665C72.8414 17.5483 72.7864 17.415 72.7697 17.265L72.9697 17.285C72.8497 17.4283 72.6997 17.5517 72.5197 17.655C72.3431 17.7583 72.1414 17.8433 71.9147 17.91C71.6914 17.9767 71.4464 18.025 71.1797 18.055C70.9164 18.0883 70.6381 18.105 70.3447 18.105ZM70.3397 18.105C69.9797 18.105 69.6747 18.0767 69.4247 18.02C69.1781 17.9667 68.9764 17.89 68.8197 17.79C68.6664 17.6867 68.5547 17.5667 68.4847 17.43C68.4147 17.2933 68.3797 17.1433 68.3797 16.98C68.3797 16.8733 68.3881 16.7667 68.4047 16.66C68.4247 16.55 68.4481 16.4433 68.4747 16.34C68.5047 16.2367 68.5314 16.1433 68.5547 16.06L69.1797 16.205C69.1664 16.265 69.1514 16.33 69.1347 16.4C69.1181 16.47 69.1047 16.5383 69.0947 16.605C69.0847 16.6683 69.0797 16.7267 69.0797 16.78C69.0797 16.9033 69.1231 17.0133 69.2097 17.11C69.2997 17.2033 69.4464 17.2767 69.6497 17.33C69.8531 17.38 70.1264 17.405 70.4697 17.405L70.5697 17.945L70.3397 18.105ZM71.2697 15.82C71.1731 15.82 71.0897 15.7867 71.0197 15.72C70.9531 15.65 70.9197 15.5683 70.9197 15.475C70.9197 15.3783 70.9531 15.295 71.0197 15.225C71.0897 15.155 71.1731 15.12 71.2697 15.12C71.3631 15.12 71.4431 15.155 71.5097 15.225C71.5764 15.295 71.6097 15.3783 71.6097 15.475C71.6097 15.5683 71.5764 15.65 71.5097 15.72C71.4431 15.7867 71.3631 15.82 71.2697 15.82ZM70.4047 15.815C70.3081 15.815 70.2247 15.7817 70.1547 15.715C70.0881 15.645 70.0547 15.5633 70.0547 15.47C70.0547 15.3733 70.0881 15.29 70.1547 15.22C70.2247 15.15 70.3081 15.115 70.4047 15.115C70.4981 15.115 70.5781 15.15 70.6447 15.22C70.7114 15.29 70.7447 15.3733 70.7447 15.47C70.7447 15.5633 70.7114 15.645 70.6447 15.715C70.5781 15.7817 70.4981 15.815 70.4047 15.815ZM73.9277 18.025L73.9777 17.325H74.6927C74.7627 17.325 74.8244 17.3217 74.8777 17.315C74.9311 17.305 74.9744 17.29 75.0077 17.27C75.0444 17.25 75.0711 17.225 75.0877 17.195C75.1044 17.165 75.1127 17.13 75.1127 17.09C75.1127 17.05 75.0911 16.9867 75.0477 16.9C75.0077 16.81 74.9194 16.7017 74.7827 16.575C74.7094 16.5083 74.6294 16.4383 74.5427 16.365C74.4594 16.2883 74.3794 16.2167 74.3027 16.15C74.2261 16.08 74.1627 16.0183 74.1127 15.965C74.0627 15.9117 74.0377 15.8733 74.0377 15.85C74.0377 15.8 74.0411 15.745 74.0477 15.685C74.0544 15.625 74.0644 15.57 74.0777 15.52C74.0944 15.47 74.1161 15.4333 74.1427 15.41C74.1994 15.3567 74.2827 15.295 74.3927 15.225C74.5061 15.1517 74.6411 15.0733 74.7977 14.99C74.9544 14.9033 75.1294 14.8133 75.3227 14.72C75.5194 14.6233 75.7294 14.5267 75.9527 14.43L76.2377 15.04C76.0544 15.12 75.8811 15.1983 75.7177 15.275C75.5544 15.3483 75.4011 15.4217 75.2577 15.495C75.1177 15.565 74.9877 15.635 74.8677 15.705C74.7511 15.7717 74.6477 15.8383 74.5577 15.905L74.6227 15.535C74.9061 15.7517 75.1311 15.9467 75.2977 16.12C75.4677 16.2933 75.5944 16.4483 75.6777 16.585C75.7611 16.7183 75.8161 16.8383 75.8427 16.945C75.8694 17.0483 75.8827 17.14 75.8827 17.22C75.8827 17.3 75.8627 17.3867 75.8227 17.48C75.7861 17.57 75.7177 17.6567 75.6177 17.74C75.5211 17.8233 75.3844 17.8917 75.2077 17.945C75.0311 17.9983 74.8044 18.025 74.5277 18.025H73.9277ZM76.078 19.155L75.823 18.535C75.9997 18.475 76.1614 18.405 76.308 18.325C76.458 18.245 76.588 18.1567 76.698 18.06C76.808 17.9633 76.893 17.8583 76.953 17.745C77.013 17.6283 77.043 17.5033 77.043 17.37C77.043 17.23 77.0114 17.0767 76.948 16.91C76.8847 16.7433 76.808 16.5733 76.718 16.4L77.373 16.085C77.433 16.1883 77.4847 16.3 77.528 16.42C77.5747 16.5367 77.613 16.6417 77.643 16.735C77.673 16.8283 77.693 16.8917 77.703 16.925C77.7497 17.085 77.813 17.1917 77.893 17.245C77.9764 17.2983 78.1097 17.325 78.293 17.325C78.4197 17.325 78.5097 17.3583 78.563 17.425C78.6197 17.4883 78.648 17.5683 78.648 17.665C78.648 17.7683 78.613 17.855 78.543 17.925C78.473 17.9917 78.373 18.025 78.243 18.025C78.1064 18.025 77.9864 18.005 77.883 17.965C77.7797 17.925 77.6964 17.8667 77.633 17.79C77.573 17.7133 77.5347 17.6233 77.518 17.52L77.703 17.625C77.683 17.8017 77.6247 17.9683 77.528 18.125C77.4347 18.285 77.313 18.4317 77.163 18.565C77.013 18.6983 76.8447 18.815 76.658 18.915C76.4714 19.015 76.278 19.095 76.078 19.155ZM78.249 18.025L78.299 17.325C78.409 17.325 78.499 17.3167 78.569 17.3C78.639 17.28 78.6957 17.2383 78.739 17.175C78.7857 17.1083 78.8257 17.01 78.859 16.88C78.8957 16.7467 78.9357 16.5667 78.979 16.34L79.629 16.46C79.619 16.51 79.6074 16.5683 79.594 16.635C79.5807 16.7017 79.569 16.77 79.559 16.84C79.549 16.9067 79.544 16.9667 79.544 17.02C79.544 17.1133 79.574 17.1883 79.634 17.245C79.694 17.2983 79.8074 17.325 79.974 17.325C80.0574 17.325 80.129 17.3167 80.189 17.3C80.2524 17.28 80.3057 17.2383 80.349 17.175C80.3957 17.1083 80.4357 17.0067 80.469 16.87C80.5057 16.73 80.5407 16.5417 80.574 16.305L81.234 16.41C81.2207 16.4867 81.2074 16.5683 81.194 16.655C81.1807 16.7417 81.169 16.8217 81.159 16.895C81.149 16.9683 81.144 17.0283 81.144 17.075C81.144 17.1183 81.1557 17.16 81.179 17.2C81.2057 17.2367 81.2524 17.2667 81.319 17.29C81.389 17.3133 81.4874 17.325 81.614 17.325C81.704 17.325 81.7807 17.3133 81.844 17.29C81.9107 17.2667 81.9607 17.2283 81.994 17.175C82.0307 17.1217 82.049 17.0517 82.049 16.965C82.049 16.8417 82.0207 16.68 81.964 16.48C81.9074 16.28 81.8407 16.07 81.764 15.85L82.469 15.64C82.5224 15.7833 82.569 15.9367 82.609 16.1C82.6524 16.26 82.6857 16.4167 82.709 16.57C82.7357 16.72 82.749 16.8517 82.749 16.965C82.749 17.135 82.7224 17.2867 82.669 17.42C82.6157 17.55 82.5407 17.66 82.444 17.75C82.3474 17.84 82.2324 17.9083 82.099 17.955C81.9657 18.0017 81.819 18.025 81.659 18.025C81.4657 18.025 81.3074 18.0067 81.184 17.97C81.0607 17.93 80.9657 17.865 80.899 17.775C80.8357 17.6817 80.794 17.555 80.774 17.395H80.944C80.874 17.5917 80.7957 17.735 80.709 17.825C80.6224 17.9117 80.519 17.9667 80.399 17.99C80.2824 18.0133 80.1357 18.025 79.959 18.025C79.849 18.025 79.7357 18.0133 79.619 17.99C79.5057 17.9633 79.404 17.9033 79.314 17.81C79.224 17.7167 79.1574 17.5717 79.114 17.375L79.384 17.365C79.314 17.5617 79.2224 17.7067 79.109 17.8C78.999 17.8933 78.8724 17.955 78.729 17.985C78.5857 18.0117 78.4257 18.025 78.249 18.025ZM80.864 14.93C80.7807 14.93 80.7074 14.8983 80.644 14.835C80.584 14.7717 80.554 14.6967 80.554 14.61C80.554 14.5233 80.584 14.45 80.644 14.39C80.7074 14.33 80.7807 14.3 80.864 14.3C80.9507 14.3 81.024 14.33 81.084 14.39C81.144 14.45 81.174 14.5233 81.174 14.61C81.174 14.6967 81.144 14.7717 81.084 14.835C81.024 14.8983 80.9507 14.93 80.864 14.93ZM80.464 15.59C80.3807 15.59 80.3074 15.5583 80.244 15.495C80.184 15.4317 80.154 15.3567 80.154 15.27C80.154 15.1833 80.184 15.11 80.244 15.05C80.3074 14.99 80.3807 14.96 80.464 14.96C80.5507 14.96 80.624 14.99 80.684 15.05C80.744 15.11 80.774 15.1833 80.774 15.27C80.774 15.3567 80.744 15.4317 80.684 15.495C80.624 15.5583 80.5507 15.59 80.464 15.59ZM81.239 15.59C81.1557 15.59 81.0824 15.5583 81.019 15.495C80.959 15.4317 80.929 15.3567 80.929 15.27C80.929 15.1833 80.959 15.11 81.019 15.05C81.0824 14.99 81.1557 14.96 81.239 14.96C81.3257 14.96 81.399 14.99 81.459 15.05C81.519 15.11 81.549 15.1833 81.549 15.27C81.549 15.3567 81.519 15.4317 81.459 15.495C81.399 15.5583 81.3257 15.59 81.239 15.59Z" fill="white"/>
</svg>
